<?xml version="1.0" encoding="UTF-8" standalone="no"?>
<!-- Created with Inkscape (http://www.inkscape.org/) -->

<svg
   xmlns:dc="http://purl.org/dc/elements/1.1/"
   xmlns:cc="http://creativecommons.org/ns#"
   xmlns:rdf="http://www.w3.org/1999/02/22-rdf-syntax-ns#"
   xmlns:svg="http://www.w3.org/2000/svg"
   xmlns="http://www.w3.org/2000/svg"
   xmlns:sodipodi="http://sodipodi.sourceforge.net/DTD/sodipodi-0.dtd"
   xmlns:inkscape="http://www.inkscape.org/namespaces/inkscape"
   id="svg4874"
   height="96"
   viewBox="0 0 96 96.000001"
   width="96"
   version="1.1"
   inkscape:version="0.91 r13725"
   sodipodi:docname="scan-cancel.svg">
  <defs
     id="defs11" />
  <sodipodi:namedview
     pagecolor="#ffffff"
     bordercolor="#666666"
     borderopacity="1"
     objecttolerance="10"
     gridtolerance="10"
     guidetolerance="10"
     inkscape:pageopacity="0"
     inkscape:pageshadow="2"
     inkscape:window-width="1605"
     inkscape:window-height="927"
     id="namedview9"
     showgrid="false"
     inkscape:zoom="2.4583333"
     inkscape:cx="47.59322"
     inkscape:cy="48"
     inkscape:window-x="138"
     inkscape:window-y="75"
     inkscape:window-maximized="0"
     inkscape:current-layer="svg4874" />
  <metadata
     id="metadata4879">
    <rdf:RDF>
      <cc:Work
         rdf:about="">
        <dc:format>image/svg+xml</dc:format>
        <dc:type
           rdf:resource="http://purl.org/dc/dcmitype/StillImage" />
        <dc:title />
      </cc:Work>
    </rdf:RDF>
  </metadata>
  <g
     id="g3355">
    <rect
       id="rect4782-3"
       style="color:#000000;fill:none"
       transform="matrix(0,1,-1,0,0,0)"
       height="96"
       width="96"
       y="-96"
       x="-2.7465821e-06" />
    <path
       id="path5823"
       d="M 84.93,14.958 67.965,31.935 c 3.761,1.401 7.7088,2.7082 11.843,3.9248 4.1122,1.1879 8.1765,2.2361 12.193,3.1414 -0.93642,-3.9851 -1.9991,-8.035 -3.187,-12.147 -1.2172,-4.136 -2.5112,-8.1001 -3.8822,-11.894 z"
       style="color:#000000;fill:#808080"
       inkscape:connector-curvature="0" />
    <path
       id="path5825"
       style="color:#000000;fill:#808080"
       d="M 11.035,81.005 28,64.029 C 24.239,62.628 20.2912,61.3208 16.157,60.1042 12.0448,58.9163 7.9805,57.8681 3.964,56.9628 c 0.93642,3.9851 1.9991,8.035 3.187,12.147 1.2172,4.136 2.5112,8.1001 3.8821,11.894 z"
       inkscape:connector-curvature="0" />
    <path
       id="path4229"
       style="color:#000000;text-indent:0;text-decoration:none;text-decoration-line:none;text-decoration-style:solid;text-decoration-color:#000000;text-transform:none;white-space:normal;isolation:auto;mix-blend-mode:normal;solid-color:#000000;fill:#808080;color-rendering:auto;image-rendering:auto;shape-rendering:auto"
       d="M 48,8 C 25.932,8 8,25.932 8,48 c 0,0.652 0.0198,1.301 0.0508,1.945 1.3552,0.336 2.7162,0.686 4.0822,1.053 C 12.051,50.009 12,49.01 12,48 12,28.094 28.094,12 48,12 c 13.005,0 24.379,6.872 30.705,17.186 l 2.859,-2.862 C 74.446,15.309 62.077,8 48,8 Z M 83.863,44.969 C 83.947,45.969 84,46.978 84,48 84,67.906 67.906,84 48,84 34.975,84 23.584,77.108 17.264,66.768 l -2.879,2.88 C 21.511,80.682 33.907,88 48,88 70.068,88 88,70.068 88,48 A 2.0002,2.0002 0 0 0 87.959,47.594 C 87.954,47.062 87.928,46.536 87.902,46.01 86.561,45.678 85.215,45.331 83.863,44.969 Z"
       inkscape:connector-curvature="0" />
    <path
       style="color:#000000;font-style:normal;font-variant:normal;font-weight:normal;font-stretch:normal;font-size:medium;line-height:normal;font-family:sans-serif;text-indent:0;text-align:start;text-decoration:none;text-decoration-line:none;text-decoration-style:solid;text-decoration-color:#000000;letter-spacing:normal;word-spacing:normal;text-transform:none;direction:ltr;block-progression:tb;writing-mode:lr-tb;baseline-shift:baseline;text-anchor:start;white-space:normal;clip-rule:nonzero;display:inline;overflow:visible;visibility:visible;opacity:1;isolation:auto;mix-blend-mode:normal;color-interpolation:sRGB;color-interpolation-filters:linearRGB;solid-color:#000000;solid-opacity:1;fill:#ce3232;fill-opacity:1;fill-rule:nonzero;stroke:none;stroke-width:4.00079155;stroke-linecap:butt;stroke-linejoin:miter;stroke-miterlimit:4;stroke-dasharray:none;stroke-dashoffset:0;stroke-opacity:1;marker:none;color-rendering:auto;image-rendering:auto;shape-rendering:auto;text-rendering:auto;enable-background:accumulate"
       d="M 90.271428,84.112522 84.109994,90.267685 5.7285711,11.887453 11.890004,5.7323094 90.271428,84.112522 Z"
       id="path4307"
       inkscape:connector-curvature="0" />
  </g>
</svg>
