<?xml version="1.0" encoding="UTF-8" standalone="no"?>
<!-- Created with Inkscape (http://www.inkscape.org/) -->

<svg
   id="svg4874"
   width="96"
   height="96"
   version="1.1"
   viewBox="0 0 96 96"
   sodipodi:docname="stereo.svg"
   inkscape:version="1.1.1 (1:1.1+202109281949+c3084ef5ed)"
   xmlns:inkscape="http://www.inkscape.org/namespaces/inkscape"
   xmlns:sodipodi="http://sodipodi.sourceforge.net/DTD/sodipodi-0.dtd"
   xmlns="http://www.w3.org/2000/svg"
   xmlns:svg="http://www.w3.org/2000/svg"
   xmlns:rdf="http://www.w3.org/1999/02/22-rdf-syntax-ns#"
   xmlns:cc="http://creativecommons.org/ns#"
   xmlns:dc="http://purl.org/dc/elements/1.1/">
  <defs
     id="defs9" />
  <sodipodi:namedview
     id="namedview7"
     pagecolor="#505050"
     bordercolor="#eeeeee"
     borderopacity="1"
     inkscape:pageshadow="0"
     inkscape:pageopacity="0"
     inkscape:pagecheckerboard="0"
     showgrid="false"
     inkscape:zoom="5.2959352"
     inkscape:cx="28.606845"
     inkscape:cy="54.192506"
     inkscape:window-width="1920"
     inkscape:window-height="1043"
     inkscape:window-x="0"
     inkscape:window-y="0"
     inkscape:window-maximized="1"
     inkscape:current-layer="g1088" />
  <metadata
     id="metadata4879">
    <rdf:RDF>
      <cc:Work
         rdf:about="">
        <dc:format>image/svg+xml</dc:format>
        <dc:type
           rdf:resource="http://purl.org/dc/dcmitype/StillImage" />
      </cc:Work>
    </rdf:RDF>
  </metadata>
  <g
     id="g3533">
    <rect
       id="rect4782"
       transform="rotate(90)"
       x="-2.7465821e-06"
       y="-96"
       width="96"
       height="96"
       style="color:#000000;fill:none" />
    <g
       id="g1088"
       transform="matrix(0.67315023,0,0,0.67315023,-3.1699186,15.659889)">
      <path
         id="path4197"
         d="m 12.00915,48.00915 c 10e-7,16.384 6.2422,32.768 18.729,45.254 l 3.5352,-3.5352 c -23.062,-23.062 -23.062,-60.376 0,-83.438 l -3.5352,-3.5371 c -12.486,12.486 -18.729,28.872 -18.729,45.256 z m 14,0 c 0,12.801 4.8763,25.603 14.629,35.355 l 3.5352,-3.5352 c -17.595,-17.595 -17.595,-46.046 0,-63.641 l -3.5352,-3.5352 c -9.7526,9.7526 -14.629,22.554 -14.629,35.355 z m 14,0 c 0,9.2184 3.5084,18.436 10.527,25.455 l 3.5352,-3.5352 c -12.127,-12.127 -12.127,-31.713 0,-43.84 l -3.5352,-3.5371 c -7.019,7.019 -10.527,16.239 -10.527,25.457 z m 14,0 c 0,5.6355 2.1424,11.271 6.4277,15.557 l 3.5352,-3.5352 c -6.6599,-6.6598 -6.6598,-17.383 0,-24.043 l -3.5352,-3.5352 c -4.2853,4.2853 -6.4277,9.9211 -6.4277,15.557 z m 13.984,0 a 8,8 0 0 0 8,8 8,8 0 0 0 8,-8 8,8 0 0 0 -8,-8 8,8 0 0 0 -8,8 z"
         style="color:#000000;fill:#808080;fill-opacity:1" />
      <path
         id="path828"
         d="m 140.02205,48.076716 c 0,-16.384 -6.2422,-32.768 -18.729,-45.2540004 l -3.5352,3.5352 c 23.062,23.0620004 23.062,60.3760004 0,83.4380004 l 3.5352,3.5371 c 12.486,-12.486 18.729,-28.872 18.729,-45.256 z m -14,0 c 0,-12.801 -4.8763,-25.603 -14.629,-35.355 l -3.5352,3.5352 c 17.595,17.595 17.595,46.046 0,63.641 l 3.5352,3.5352 c 9.7526,-9.7526 14.629,-22.554 14.629,-35.355 z m -14,0 c 0,-9.2184 -3.5084,-18.436 -10.527,-25.455 l -3.535202,3.5352 c 12.127002,12.127 12.127002,31.713 0,43.84 l 3.535202,3.5371 c 7.019,-7.019 10.527,-16.239 10.527,-25.457 z m -14.000002,0 c 0,-5.6355 -2.1424,-11.271 -6.4277,-15.557 l -3.5352,3.5352 c 6.6599,6.6598 6.6598,17.383 0,24.043 l 3.5352,3.5352 c 4.2853,-4.2853 6.4277,-9.9211 6.4277,-15.557 z m -13.984,0 a 8,8 0 0 0 -8,-8 8,8 0 0 0 -7.999995,8 8,8 0 0 0 7.999995,8 8,8 0 0 0 8,-8 z"
         style="color:#000000;fill:#808080;fill-opacity:1" />
    </g>
  </g>
</svg>
