<?xml version="1.0" encoding="UTF-8" standalone="no"?>
<!-- Created with Inkscape (http://www.inkscape.org/) -->

<svg
   id="svg4874"
   width="96"
   height="96"
   version="1.1"
   viewBox="0 0 96 96"
   sodipodi:docname="mono.svg"
   inkscape:version="1.1.1 (1:1.1+202109281949+c3084ef5ed)"
   xmlns:inkscape="http://www.inkscape.org/namespaces/inkscape"
   xmlns:sodipodi="http://sodipodi.sourceforge.net/DTD/sodipodi-0.dtd"
   xmlns="http://www.w3.org/2000/svg"
   xmlns:svg="http://www.w3.org/2000/svg"
   xmlns:rdf="http://www.w3.org/1999/02/22-rdf-syntax-ns#"
   xmlns:cc="http://creativecommons.org/ns#"
   xmlns:dc="http://purl.org/dc/elements/1.1/">
  <defs
     id="defs9" />
  <sodipodi:namedview
     id="namedview7"
     pagecolor="#505050"
     bordercolor="#eeeeee"
     borderopacity="1"
     inkscape:pageshadow="0"
     inkscape:pageopacity="0"
     inkscape:pagecheckerboard="0"
     showgrid="false"
     inkscape:zoom="3.7447917"
     inkscape:cx="28.973574"
     inkscape:cy="30.709318"
     inkscape:window-width="1920"
     inkscape:window-height="1043"
     inkscape:window-x="0"
     inkscape:window-y="0"
     inkscape:window-maximized="1"
     inkscape:current-layer="svg4874" />
  <metadata
     id="metadata4879">
    <rdf:RDF>
      <cc:Work
         rdf:about="">
        <dc:format>image/svg+xml</dc:format>
        <dc:type
           rdf:resource="http://purl.org/dc/dcmitype/StillImage" />
      </cc:Work>
    </rdf:RDF>
  </metadata>
  <rect
     id="rect4782"
     transform="rotate(90)"
     x="-2.7465821e-06"
     y="-96"
     width="96"
     height="96"
     style="color:#000000;fill:none" />
  <g
     id="g1088"
     transform="matrix(0.67315023,0,0,0.67315023,-3.1699186,2.4288214)">
    <g
       id="g1083"
       transform="translate(-97.589958,14.547692)" />
  </g>
  <g
     id="g1707"
     transform="rotate(45,54.816161,31.95426)">
    <path
       id="path828"
       d="m 140.02205,48.076716 c 0,-16.384 -6.2422,-32.768 -18.729,-45.2540004 l -3.5352,3.5352 c 23.062,23.0620004 23.062,60.3760004 0,83.4380004 l 3.5352,3.5371 c 12.486,-12.486 18.729,-28.872 18.729,-45.256 z m -14,0 c 0,-12.801 -4.8763,-25.603 -14.629,-35.355 l -3.5352,3.5352 c 17.595,17.595 17.595,46.046 0,63.641 l 3.5352,3.5352 c 9.7526,-9.7526 14.629,-22.554 14.629,-35.355 z m -14,0 c 0,-9.2184 -3.5084,-18.436 -10.527,-25.455 l -3.535202,3.5352 c 12.127002,12.127 12.127002,31.713 0,43.84 l 3.535202,3.5371 c 7.019,-7.019 10.527,-16.239 10.527,-25.457 z m -14.000002,0 c 0,-5.6355 -2.1424,-11.271 -6.4277,-15.557 l -3.5352,3.5352 c 6.6599,6.6598 6.6598,17.383 0,24.043 l 3.5352,3.5352 c 4.2853,-4.2853 6.4277,-9.9211 6.4277,-15.557 z m -13.984,0 a 8,8 0 0 0 -8,-8 8,8 0 0 0 -7.999995,8 8,8 0 0 0 7.999995,8 8,8 0 0 0 8,-8 z"
       style="color:#000000;fill:#808080;fill-opacity:1"
       transform="matrix(0.67315023,0,0,0.67315023,-3.1699186,2.4288214)" />
    <g
       id="g1696"
       transform="matrix(0,0.67315023,-0.67315023,0,70.58471,-82.085991)" />
    <path
       id="path1698"
       d="m 48.01464,77.862587 c 11.028893,0 22.057786,-4.201938 30.46274,-12.60743 l -2.37972,-2.379721 c -15.524191,15.52419 -40.642119,15.52419 -56.16631,0 l -2.380999,2.379721 c 8.404954,8.404953 19.435193,12.60743 30.464087,12.60743 z m 0,-9.424103 c 8.616996,0 17.234665,-3.282483 23.799226,-9.847515 l -2.379721,-2.37972 c -11.844078,11.844078 -30.995875,11.844078 -42.839954,0 l -2.37972,2.37972 c 6.564965,6.564965 15.18223,9.847515 23.799226,9.847515 z m 0,-9.424103 c 6.205368,0 12.410197,-2.361681 17.135039,-7.086253 l -2.379721,-2.379722 c -8.163293,8.163294 -21.347613,8.163294 -29.510906,0 l -2.381,2.379722 c 4.724842,4.724842 10.931287,7.086253 17.136386,7.086253 z m 0,-9.424105 c 3.793538,0 7.587076,-1.442157 10.472198,-4.326808 l -2.379721,-2.37972 c -4.483046,4.483113 -11.70137,4.483046 -16.184551,0 l -2.379721,2.37972 c 2.884651,2.884651 6.678391,4.326808 10.472198,4.326808 z m 0,-9.413333 a 5.3852018,5.3852018 0 0 0 5.385201,-5.385202 5.3852018,5.3852018 0 0 0 -5.385201,-5.385198 5.3852018,5.3852018 0 0 0 -5.385202,5.385198 5.3852018,5.3852018 0 0 0 5.385202,5.385202 z"
       style="color:#000000;fill:#808080;fill-opacity:1;stroke-width:0.67315" />
  </g>
</svg>
